<svg id="Layer_1" data-name="Layer 1" xmlns="http://www.w3.org/2000/svg" viewBox="0 0 2504.07 747.03"><defs><style>.cls-1{fill:#b68741;}.cls-2{fill:#00adef;}</style></defs><path class="cls-1" d="M629.86,149.24c6.07,1.55,12.29,2.67,18.18,4.73,57.76,20.23,75.65,92.31,34.18,137.31-1.31,1.42-2.56,2.9-4.74,5.39,4.47,1,7.8,1.88,11.19,2.46,23,3.92,43.81,13.49,62.75,26.62,36.42,25.25,56.91,61.05,66.21,103.79,4.25,19.58,6.61,39.41,4.78,59.4a318.24,318.24,0,0,1-11,59.59c-8.18,28.25-20.24,54.65-34.38,80.35a453.23,453.23,0,0,1-46.38,68.28c-26.21,32.09-54.93,61.73-87.29,87.88-26.87,21.72-54,43-83,61.8a46.16,46.16,0,0,1-10.5,5.17c-1.69.56-4-.78-6-1.26l-.42-1.77c3-2.65,6.14-5.22,9.08-8,17.34-16.25,34.11-33,49.5-51.19,22.19-26.27,43.51-53.18,61.8-82.29,11.09-17.65,21.41-35.83,31.09-54.3,15.78-30.13,29-61.41,36.93-94.62,3.47-14.46,7.2-29,8.7-43.74,1.54-15,2-30.26-.52-45.44-2.43-14.79-6.15-29.11-14.17-41.83-13.93-22.11-33.88-35.72-59.56-41.18-15.81-3.37-31.82-5.6-47.79-3.95-19.23,2-38.36,5.39-57.36,9.09-21.65,4.23-42.33,11.89-62,21.74-14,7-27.28,15.34-40.92,23-2.93,1.64-6,2.93-9.23,4.47-3.54-6.31-6.58-12.1-10-17.7-12-19.92-28-36.22-45.54-51.41-16.8-14.58-35.15-26.78-54.36-37.7-17.13-9.74-34.65-18.82-53.48-25.08-3.86-1.28-7.36-3.59-11.16-5.08s-7.68-2.29-11.4-3.72c-2.29-.88-4.34-2.37-7.73-4.28,3.34-.67,5.65-1.64,7.89-1.5,15.33,1,30.71,1.67,45.95,3.5a444,444,0,0,1,46.2,7.63c20.51,4.7,40.92,10.08,60.25,18.74,9.6,4.3,19.21,8.59,28.7,13.12,3.65,1.74,6.91,2.08,10.74.46,15.8-6.71,31.5-13.73,47.61-19.59,14.71-5.36,29.9-9.41,44.91-14,5.79-1.76,11.65-3.28,17.48-4.9l1.27-2.46c-1.51-.75-3.36-1.17-4.48-2.31C538,270.43,530,241.62,539.47,209.28c9.39-31.91,31.94-50.95,64.17-58.63,2.38-.56,4.81-1,7.22-1.41Z" transform="translate(-112.92 -149.24)"/><path class="cls-2" d="M112.92,407.2c1-5,1.69-10.17,3-15.12,3.49-12.89,7.1-25.74,11-38.51,1.48-4.84,4-9.34,5.74-14.14,2.27-6.45,11.92-7.32,16.84-3.18,1.17,1,1.64,3.49,1.51,5.23-.52,6.9-1.33,13.79-2.17,20.66-1.43,11.66-3.25,23.3-.93,35,2.53,12.72,3.58,26,8.1,38,10.24,27.13,25.09,51.72,46.22,72.14,4.85,4.69,8.6,10.52,13.5,15.15,9.22,8.72,18.62,17.31,28.48,25.29,9.2,7.44,19,14.19,28.73,20.91A230,230,0,0,0,293,581c12.64,6.9,25.51,13.42,38.29,20.06a36.41,36.41,0,0,0,4.05,1.36c-3.3-5.49-5.91-9.76-8.46-14.07-7.56-12.78-14.15-26-17.29-40.63-4.07-18.87-5-37.47,7.13-54.33,4.13-5.72,10.18-7.2,16.43-6.82,2.35.14,5.71,3.18,6.51,5.6,2.66,8,3.73,16.6,6.6,24.53a119.05,119.05,0,0,0,23.53,38.58c15.24,17.09,31.18,33.61,47.54,49.63,16.8,16.45,34.94,31.54,51.63,48.09,21.63,21.45,34.55,47.81,41,77.57a153,153,0,0,1,2.73,43.06,205.55,205.55,0,0,1-17.88,71.07c-6.88,15.14-15.08,29.7-23.16,44.26-1.66,3-5.39,4.88-8.17,7.28-1.2-3-2.92-6-3.52-9.18-7.4-39.1-25.72-72-55.77-98.16-17-14.77-34.28-29.16-51.55-43.59-19.64-16.42-39.52-32.55-59.07-49.07-11.85-10-23.61-20.21-34.83-30.93-19.57-18.7-39.56-37.07-57.78-57-23.78-26-44.9-54.24-61.09-85.88-10.64-20.77-19.1-42.25-23.8-65.11-1.22-5.94-1.45-12.07-2.2-18.1a7.3,7.3,0,0,0-1-2Z" transform="translate(-112.92 -149.24)"/><path class="cls-2" d="M204.88,504.69c-4.47-4.51-10.06-8.35-13.22-13.64-12.92-21.66-26-43.34-33.49-67.68-2.73-8.91.78-17.57,3.47-25.92,3.51-10.86,8.74-21.06,16.6-29.41a22.25,22.25,0,0,1,11.83-6.53c8.6-1.33,10.45,2.88,8.13,13.52-1.83,8.43-5.49,16.47-7.24,24.91a93.26,93.26,0,0,0-1.9,22.11,210.31,210.31,0,0,0,14.37,69.2c1.54,3.92,2.21,8.18,3.28,12.28Z" transform="translate(-112.92 -149.24)"/><path class="cls-2" d="M194.85,428.77c-1.17-12,5.4-21.52,15.94-28.93,1.07-.74,2.33-1.65,3.53-1.69,3.64-.1,8.14-1,10.67.73,1.88,1.3,2,6.43,1.46,9.59-.76,4.29-2.76,8.4-4.54,12.46A102,102,0,0,0,213,462.6c0,9.95.72,19.9.82,29.85,0,1.95-1.33,3.93-2,5.89-1.46-1.49-3.59-2.73-4.26-4.52A195.28,195.28,0,0,1,194.85,428.77Z" transform="translate(-112.92 -149.24)"/><path class="cls-1" d="M1211.32,552.54h-84L992.08,317.23h-1.89c2.6,41.39,4,71.18,4,88.92V552.54H935.33V241.31h83L1153.61,474.5H1155c-2.13-40.44-3.07-69.06-3.07-85.85V241.31h59.36Z" transform="translate(-112.92 -149.24)"/><path class="cls-1" d="M1455.94,556.8c-38.31,0-68.35-10.64-89.87-31.69s-32.16-51.08-32.16-89.87c0-40,9.93-70.71,29.8-92.47,20.1-21.76,47.53-32.64,82.77-32.64,33.58,0,59.83,9.7,78.52,28.86s28.14,45.4,28.14,79.22v31.46H1399.65c1.18,36.89,22.47,58.88,59.36,58.88,28.62,0,53-5.67,80.65-18.68V540a144.24,144.24,0,0,1-36.42,12.53C1490.23,555.38,1474.62,556.8,1455.94,556.8Zm-9-200.55c-27.67,0-43.75,18.21-45.88,50.37h91C1491.89,374.46,1474.38,356.25,1447,356.25Z" transform="translate(-112.92 -149.24)"/><path class="cls-1" d="M1734.61,552.54h-64.8V221.45h64.8Z" transform="translate(-112.92 -149.24)"/><path class="cls-1" d="M1863.82,253.14c0-21,11.83-31.69,35.48-31.69,23.41,0,35.24,10.64,35.24,31.69,0,20.1-11.83,31.93-35.24,31.93Q1863.83,285.07,1863.82,253.14Zm67.64,299.4h-64.8V314.63h64.8Z" transform="translate(-112.92 -149.24)"/><path class="cls-1" d="M2279.67,433.11c0,38.79-10.17,69.06-30.75,91q-30.51,32.64-85.14,32.64c-68.58.71-115.64-48.48-114.7-123.69,0-38.78,10.17-69.05,30.27-90.58,20.34-21.52,49-32.4,85.61-32.4C2233.79,309.19,2280.85,358.38,2279.67,433.11Zm-164.37,0c0,47.3,14.43,71.66,49.19,71.66s49-24.36,49-71.66c0-47.06-14.43-70.71-49.2-70.71S2115.3,385.81,2115.3,433.11Z" transform="translate(-112.92 -149.24)"/><path class="cls-1" d="M2617,552.54h-65V413.48c0-34.29-11.59-51.32-38.32-51.32-18.21,0-31.21,6.15-39.49,18.21q-12.06,18.11-12.06,60.31V552.54h-64.8V314.63H2447l8.75,30.51h3.55c14.43-22.94,40.91-35,73.08-35,55.57,0,84.66,30.75,84.66,87.27Z" transform="translate(-112.92 -149.24)"/><path class="cls-2" d="M1055.61,802.42c0,1.48,0,2.74-.14,3.78a18.12,18.12,0,0,1-.4,2.67,7.61,7.61,0,0,1-.71,1.91,9.59,9.59,0,0,1-1.42,1.82,18.15,18.15,0,0,1-3.78,2.62,44.25,44.25,0,0,1-6.84,3.07,60.41,60.41,0,0,1-9.24,2.44,61.12,61.12,0,0,1-11.25,1,59.11,59.11,0,0,1-21.32-3.65,42,42,0,0,1-16.18-10.88,48.73,48.73,0,0,1-10.22-18.09,81.07,81.07,0,0,1-3.55-25.24,79.91,79.91,0,0,1,3.91-26,54.08,54.08,0,0,1,10.93-19.1A45.58,45.58,0,0,1,1002.24,707a56.76,56.76,0,0,1,21.64-4,51.41,51.41,0,0,1,9.24.8,56,56,0,0,1,8.22,2.09,41,41,0,0,1,6.8,3,20.64,20.64,0,0,1,4.22,2.89,10.28,10.28,0,0,1,1.65,2,7.79,7.79,0,0,1,.71,2,24.41,24.41,0,0,1,.4,2.94c.09,1.12.13,2.52.13,4.17s-.06,3.29-.18,4.54a11.63,11.63,0,0,1-.62,3,4.17,4.17,0,0,1-1.07,1.69,2.12,2.12,0,0,1-1.42.53,6.17,6.17,0,0,1-3.38-1.56,55.41,55.41,0,0,0-5.28-3.46,43.81,43.81,0,0,0-7.73-3.47,33.08,33.08,0,0,0-10.71-1.55,25.32,25.32,0,0,0-21.38,10.8A37.33,37.33,0,0,0,997.75,746a73.1,73.1,0,0,0,.13,34.17,33.94,33.94,0,0,0,6,12.22,24.15,24.15,0,0,0,9.33,7.16,30.81,30.81,0,0,0,12.31,2.35,35,35,0,0,0,10.75-1.47,44.61,44.61,0,0,0,7.78-3.24q3.24-1.77,5.33-3.2a6.57,6.57,0,0,1,3.24-1.42,2.63,2.63,0,0,1,1.43.35,2.66,2.66,0,0,1,.88,1.43,13.72,13.72,0,0,1,.54,3C1055.55,798.59,1055.61,800.29,1055.61,802.42Z" transform="translate(-112.92 -149.24)"/><path class="cls-2" d="M1193.21,817.09a2.33,2.33,0,0,1-.89,1.95,5.91,5.91,0,0,1-2.79,1,37.48,37.48,0,0,1-5.65.32,37.87,37.87,0,0,1-5.82-.32,5,5,0,0,1-2.58-1,2.55,2.55,0,0,1-.75-1.95v-6.31a36.11,36.11,0,0,1-11.15,8.17,32.37,32.37,0,0,1-13.91,2.94,38.76,38.76,0,0,1-11.6-1.65,25.78,25.78,0,0,1-9.15-4.89,21.91,21.91,0,0,1-6-8,27.23,27.23,0,0,1-2.14-11.2,25.43,25.43,0,0,1,2.71-12,22.13,22.13,0,0,1,8.09-8.44A40.17,40.17,0,0,1,1145,770.7a95.24,95.24,0,0,1,18.57-1.6h7.73v-4.8a25.33,25.33,0,0,0-.75-6.53,11,11,0,0,0-2.49-4.67,10.43,10.43,0,0,0-4.62-2.76,24.8,24.8,0,0,0-7.16-.88,36.7,36.7,0,0,0-10,1.24,56.65,56.65,0,0,0-7.78,2.76q-3.37,1.5-5.64,2.75a8.3,8.3,0,0,1-3.69,1.24,2.63,2.63,0,0,1-1.74-.62,4.51,4.51,0,0,1-1.24-1.78,11.94,11.94,0,0,1-.76-2.84,25,25,0,0,1-.26-3.73,17.29,17.29,0,0,1,.44-4.36,6.7,6.7,0,0,1,1.69-2.88,16.6,16.6,0,0,1,4.36-2.85,52.05,52.05,0,0,1,7.28-2.89,66.93,66.93,0,0,1,9.11-2.17,59.51,59.51,0,0,1,10.18-.85,60.94,60.94,0,0,1,16,1.82,27,27,0,0,1,10.89,5.6,21.9,21.9,0,0,1,6.22,9.73,45.59,45.59,0,0,1,2,14.13Zm-22-34h-8.53a45.3,45.3,0,0,0-9.24.8,17.57,17.57,0,0,0-6.22,2.4,9.83,9.83,0,0,0-3.51,3.86,11.56,11.56,0,0,0-1.11,5.2,10,10,0,0,0,3.15,7.82q3.15,2.85,8.75,2.85a16.42,16.42,0,0,0,8.67-2.4,36,36,0,0,0,8-7Z" transform="translate(-112.92 -149.24)"/><path class="cls-2" d="M1321,744.92c0,2.14-.06,3.88-.17,5.25a16,16,0,0,1-.54,3.2,3.07,3.07,0,0,1-.93,1.6,2.38,2.38,0,0,1-1.47.44,4.89,4.89,0,0,1-1.6-.31c-.59-.21-1.25-.43-2-.67s-1.55-.46-2.44-.66a12.79,12.79,0,0,0-2.93-.31,9.89,9.89,0,0,0-3.73.75,15.42,15.42,0,0,0-3.87,2.36,28.28,28.28,0,0,0-4.18,4.26,68.16,68.16,0,0,0-4.66,6.58v49.41a2.43,2.43,0,0,1-.54,1.56,3.94,3.94,0,0,1-1.82,1.11,16.44,16.44,0,0,1-3.42.66,64,64,0,0,1-10.84,0,16.3,16.3,0,0,1-3.42-.66,4,4,0,0,1-1.83-1.11,2.47,2.47,0,0,1-.53-1.56V737.55a2.75,2.75,0,0,1,.45-1.56,3.23,3.23,0,0,1,1.6-1.11,13,13,0,0,1,3-.67,40.94,40.94,0,0,1,4.58-.22,43,43,0,0,1,4.71.22,11,11,0,0,1,2.89.67,3.27,3.27,0,0,1,1.46,1.11,2.75,2.75,0,0,1,.45,1.56v9.86a64.13,64.13,0,0,1,5.86-7.33,33.84,33.84,0,0,1,5.25-4.58,16.59,16.59,0,0,1,5-2.35,19,19,0,0,1,5-.67,24.92,24.92,0,0,1,2.49.14,21.48,21.48,0,0,1,2.75.44,18,18,0,0,1,2.49.71,5.23,5.23,0,0,1,1.56.84,3,3,0,0,1,.71,1,7.86,7.86,0,0,1,.4,1.47,21.37,21.37,0,0,1,.27,2.8C1321,741.1,1321,742.79,1321,744.92Z" transform="translate(-112.92 -149.24)"/><path class="cls-2" d="M1460.61,774.87c0,2.73-.61,4.74-1.82,6a6.55,6.55,0,0,1-5,2h-48.25a33,33,0,0,0,1.2,9.2,17.51,17.51,0,0,0,3.82,7,16.67,16.67,0,0,0,6.75,4.4,28.89,28.89,0,0,0,9.91,1.51,56,56,0,0,0,10.31-.84,70.83,70.83,0,0,0,7.69-1.87q3.24-1,5.37-1.87a10.07,10.07,0,0,1,3.47-.84,2.57,2.57,0,0,1,1.33.31,2.33,2.33,0,0,1,.89,1.11,7.36,7.36,0,0,1,.49,2.27c.09,1,.13,2.21.13,3.69,0,1.3,0,2.41-.08,3.33a20.5,20.5,0,0,1-.27,2.35,5.93,5.93,0,0,1-.53,1.65,6.4,6.4,0,0,1-.94,1.29,10.79,10.79,0,0,1-3.15,1.68,48.38,48.38,0,0,1-6.58,2.09,89.23,89.23,0,0,1-9.15,1.78,76.61,76.61,0,0,1-11,.76,58.26,58.26,0,0,1-18.53-2.67,33,33,0,0,1-13.29-8.09,33.55,33.55,0,0,1-7.95-13.68,64.22,64.22,0,0,1-2.62-19.38,61.47,61.47,0,0,1,2.75-19.06,40,40,0,0,1,8-14.4,34.38,34.38,0,0,1,12.75-9,44,44,0,0,1,16.93-3.11,44.42,44.42,0,0,1,17,2.93,30.73,30.73,0,0,1,11.6,8.14,32.78,32.78,0,0,1,6.66,12.3,53.42,53.42,0,0,1,2.14,15.47Zm-21.69-6.4q.27-9.4-3.77-14.79t-12.49-5.38a16.17,16.17,0,0,0-7.42,1.6,15.11,15.11,0,0,0-5.24,4.31,19.52,19.52,0,0,0-3.2,6.4,31.06,31.06,0,0,0-1.29,7.86Z" transform="translate(-112.92 -149.24)"/><path class="cls-2" d="M1682.59,785.36a35.55,35.55,0,0,1-3.37,15.91,33.1,33.1,0,0,1-9.16,11.42,39.85,39.85,0,0,1-13.51,6.89,57.43,57.43,0,0,1-16.53,2.31,59,59,0,0,1-11.06-1,62.38,62.38,0,0,1-9-2.36,39,39,0,0,1-6.53-2.88,19,19,0,0,1-3.78-2.67,6.61,6.61,0,0,1-1.64-3.33,30.22,30.22,0,0,1-.49-6.27c0-1.83.06-3.38.17-4.62a13.83,13.83,0,0,1,.58-3,3.41,3.41,0,0,1,1.07-1.65,2.58,2.58,0,0,1,1.55-.49,7.36,7.36,0,0,1,3.51,1.47,61.77,61.77,0,0,0,5.83,3.24,52.21,52.21,0,0,0,8.48,3.25,40.14,40.14,0,0,0,11.42,1.46,26.14,26.14,0,0,0,7.65-1,17,17,0,0,0,5.73-2.89,12.18,12.18,0,0,0,3.6-4.62,14.69,14.69,0,0,0,1.24-6.13,10.78,10.78,0,0,0-2.13-6.71,21.23,21.23,0,0,0-5.56-5,56.25,56.25,0,0,0-7.77-4.09c-2.91-1.28-5.9-2.62-9-4.05a80.86,80.86,0,0,1-9-4.84,36.24,36.24,0,0,1-7.78-6.49,30.75,30.75,0,0,1-5.56-8.93,32.24,32.24,0,0,1-2.13-12.35,32.57,32.57,0,0,1,3.07-14.53,29.75,29.75,0,0,1,8.26-10.4,35.28,35.28,0,0,1,12.27-6.18,53.71,53.71,0,0,1,15-2,55,55,0,0,1,8.18.62,56.91,56.91,0,0,1,7.64,1.69,42.56,42.56,0,0,1,6.31,2.4,14.72,14.72,0,0,1,3.64,2.22,6.4,6.4,0,0,1,1.21,1.51,7.82,7.82,0,0,1,.53,1.65,18.26,18.26,0,0,1,.31,2.57q.09,1.56.09,3.87c0,1.72,0,3.17-.14,4.35a15.33,15.33,0,0,1-.44,2.94,3.41,3.41,0,0,1-.89,1.68,2.17,2.17,0,0,1-1.55.54,7.4,7.4,0,0,1-3.11-1.25c-1.43-.83-3.17-1.73-5.25-2.71a50.51,50.51,0,0,0-7.2-2.66,31.7,31.7,0,0,0-9-1.2,21.53,21.53,0,0,0-6.67.93,13.68,13.68,0,0,0-4.75,2.58,10.15,10.15,0,0,0-2.85,4,13,13,0,0,0-.93,4.89,10.78,10.78,0,0,0,2.09,6.62,20,20,0,0,0,5.6,5,61.26,61.26,0,0,0,8,4.09q4.44,1.91,9.07,4a89.85,89.85,0,0,1,9.06,4.84,36.48,36.48,0,0,1,7.91,6.49,30.2,30.2,0,0,1,5.6,8.89A31.17,31.17,0,0,1,1682.59,785.36Z" transform="translate(-112.92 -149.24)"/><path class="cls-2" d="M1823.68,774.87c0,2.73-.61,4.74-1.82,6a6.55,6.55,0,0,1-5,2h-48.26a33,33,0,0,0,1.2,9.2,17.51,17.51,0,0,0,3.82,7,16.67,16.67,0,0,0,6.75,4.4,28.89,28.89,0,0,0,9.91,1.51,56,56,0,0,0,10.31-.84,69.69,69.69,0,0,0,7.69-1.87q3.24-1,5.38-1.87a10,10,0,0,1,3.46-.84,2.61,2.61,0,0,1,1.34.31,2.32,2.32,0,0,1,.88,1.11,7.36,7.36,0,0,1,.49,2.27c.09,1,.14,2.21.14,3.69q0,1.95-.09,3.33a20.5,20.5,0,0,1-.27,2.35,5.93,5.93,0,0,1-.53,1.65,6.4,6.4,0,0,1-.94,1.29,10.79,10.79,0,0,1-3.15,1.68,48.38,48.38,0,0,1-6.58,2.09,89.23,89.23,0,0,1-9.15,1.78,76.61,76.61,0,0,1-11,.76,58.26,58.26,0,0,1-18.53-2.67,33,33,0,0,1-13.29-8.09,33.66,33.66,0,0,1-8-13.68,64.22,64.22,0,0,1-2.62-19.38,61.77,61.77,0,0,1,2.75-19.06,40,40,0,0,1,8-14.4,34.54,34.54,0,0,1,12.75-9,44,44,0,0,1,16.93-3.11,44.42,44.42,0,0,1,17,2.93,30.73,30.73,0,0,1,11.6,8.14,32.94,32.94,0,0,1,6.67,12.3,53.77,53.77,0,0,1,2.13,15.47Zm-21.68-6.4q.26-9.4-3.78-14.79t-12.49-5.38a16.17,16.17,0,0,0-7.42,1.6,15.2,15.2,0,0,0-5.24,4.31,19.52,19.52,0,0,0-3.2,6.4,32,32,0,0,0-1.29,7.86Z" transform="translate(-112.92 -149.24)"/><path class="cls-2" d="M1944.32,744.92c0,2.14-.06,3.88-.17,5.25a16,16,0,0,1-.54,3.2,3.14,3.14,0,0,1-.93,1.6,2.4,2.4,0,0,1-1.47.44,4.89,4.89,0,0,1-1.6-.31c-.59-.21-1.26-.43-2-.67s-1.55-.46-2.44-.66a12.79,12.79,0,0,0-2.93-.31,10,10,0,0,0-3.74.75,15.55,15.55,0,0,0-3.86,2.36,28.28,28.28,0,0,0-4.18,4.26,68.16,68.16,0,0,0-4.66,6.58v49.41a2.43,2.43,0,0,1-.54,1.56,3.94,3.94,0,0,1-1.82,1.11,16.44,16.44,0,0,1-3.42.66,64,64,0,0,1-10.84,0,16.3,16.3,0,0,1-3.42-.66,4,4,0,0,1-1.83-1.11,2.47,2.47,0,0,1-.53-1.56V737.55a2.82,2.82,0,0,1,.44-1.56,3.31,3.31,0,0,1,1.61-1.11,13,13,0,0,1,3-.67A40.94,40.94,0,0,1,1903,734a43.26,43.26,0,0,1,4.71.22,11,11,0,0,1,2.89.67,3.27,3.27,0,0,1,1.46,1.11,2.75,2.75,0,0,1,.45,1.56v9.86a64.13,64.13,0,0,1,5.86-7.33,33.84,33.84,0,0,1,5.25-4.58,16.48,16.48,0,0,1,5-2.35,19,19,0,0,1,5-.67,24.92,24.92,0,0,1,2.49.14,21.48,21.48,0,0,1,2.75.44,18,18,0,0,1,2.49.71,5.23,5.23,0,0,1,1.56.84,3,3,0,0,1,.71,1,7.86,7.86,0,0,1,.4,1.47,23.29,23.29,0,0,1,.27,2.8C1944.29,741.1,1944.32,742.79,1944.32,744.92Z" transform="translate(-112.92 -149.24)"/><path class="cls-2" d="M2084,737.46c0,.3,0,.65,0,1.07s-.09.87-.17,1.37-.21,1.08-.36,1.74-.34,1.39-.58,2.22L2059,815.58a7,7,0,0,1-1.19,2.44,5.12,5.12,0,0,1-2.49,1.47,21.37,21.37,0,0,1-4.71.71q-3,.18-7.78.18t-7.69-.23a21.92,21.92,0,0,1-4.66-.75,5.07,5.07,0,0,1-2.45-1.47,7.21,7.21,0,0,1-1.2-2.35L2003,743.86c-.36-1.19-.64-2.25-.85-3.2a15.71,15.71,0,0,1-.35-2c0-.41,0-.8,0-1.15a2.56,2.56,0,0,1,.49-1.56,3.65,3.65,0,0,1,1.73-1.11,14.32,14.32,0,0,1,3.43-.62q2.17-.18,5.46-.18c2.43,0,4.39.08,5.87.22a18.38,18.38,0,0,1,3.51.63,3.38,3.38,0,0,1,1.82,1.15,7.35,7.35,0,0,1,.89,1.82L2043,796l.53,2.23.53-2.23,17.78-58.21a5.09,5.09,0,0,1,.84-1.82,3.57,3.57,0,0,1,1.83-1.15,16.76,16.76,0,0,1,3.33-.63c1.39-.14,3.21-.22,5.46-.22s4,.06,5.38.18a12.63,12.63,0,0,1,3.24.62,3.28,3.28,0,0,1,1.6,1.11A2.75,2.75,0,0,1,2084,737.46Z" transform="translate(-112.92 -149.24)"/><path class="cls-2" d="M2172.55,710.71q0,6.75-2.76,9.33t-10.21,2.58q-7.56,0-10.18-2.49t-2.62-9q0-6.75,2.71-9.37c1.8-1.75,5.23-2.62,10.26-2.62s8.36.84,10.13,2.53S2172.55,706.38,2172.55,710.71Zm-1.69,106.11a2.47,2.47,0,0,1-.53,1.56,4,4,0,0,1-1.82,1.11,16.42,16.42,0,0,1-3.43.66,64,64,0,0,1-10.84,0,16.44,16.44,0,0,1-3.42-.66,4,4,0,0,1-1.82-1.11,2.42,2.42,0,0,1-.53-1.56V737.73a2.38,2.38,0,0,1,.53-1.56,4.3,4.3,0,0,1,1.82-1.16,15.77,15.77,0,0,1,3.42-.75,54.54,54.54,0,0,1,10.84,0,15.74,15.74,0,0,1,3.43.75,4.3,4.3,0,0,1,1.82,1.16,2.43,2.43,0,0,1,.53,1.56Z" transform="translate(-112.92 -149.24)"/><path class="cls-2" d="M2304.48,804.2c0,1.54,0,2.83-.13,3.87a22.48,22.48,0,0,1-.36,2.62,7.94,7.94,0,0,1-.53,1.73,6.42,6.42,0,0,1-1.38,1.69,19.57,19.57,0,0,1-3.64,2.49,36,36,0,0,1-5.87,2.62,48,48,0,0,1-7.15,1.87,44.27,44.27,0,0,1-8,.71,43.07,43.07,0,0,1-16.22-2.85,30.33,30.33,0,0,1-11.87-8.4,36.91,36.91,0,0,1-7.24-13.55,62.64,62.64,0,0,1-2.44-18.31,63.66,63.66,0,0,1,3-20.57,39.42,39.42,0,0,1,8.31-14.35,33.11,33.11,0,0,1,12.62-8.44,44.83,44.83,0,0,1,16-2.76,39.47,39.47,0,0,1,7,.62,40.83,40.83,0,0,1,6.39,1.69,34,34,0,0,1,5.34,2.4,16.34,16.34,0,0,1,3.33,2.31,9.3,9.3,0,0,1,1.38,1.65,5.78,5.78,0,0,1,.62,1.73,22.41,22.41,0,0,1,.35,2.62c.09,1,.14,2.3.14,3.78,0,3.43-.3,5.85-.89,7.24s-1.36,2.09-2.31,2.09a5.4,5.4,0,0,1-3.2-1.25q-1.7-1.23-4-2.75a29.77,29.77,0,0,0-5.51-2.76,21.27,21.27,0,0,0-7.64-1.24q-8.72,0-13.33,6.71t-4.63,19.68a49.38,49.38,0,0,0,1.16,11.29,24,24,0,0,0,3.42,8.18,14.47,14.47,0,0,0,5.69,4.93,18.1,18.1,0,0,0,8,1.64,20.77,20.77,0,0,0,8-1.37,32.3,32.3,0,0,0,5.82-3.07c1.66-1.12,3.05-2.15,4.17-3.07a5,5,0,0,1,2.85-1.37,2,2,0,0,1,1.33.44,3.17,3.17,0,0,1,.85,1.65,20.18,20.18,0,0,1,.48,3.06Q2304.48,801.28,2304.48,804.2Z" transform="translate(-112.92 -149.24)"/><path class="cls-2" d="M2445.21,774.87c0,2.73-.61,4.74-1.82,6a6.53,6.53,0,0,1-5,2h-48.26a33,33,0,0,0,1.2,9.2,17.63,17.63,0,0,0,3.82,7,16.64,16.64,0,0,0,6.76,4.4,28.85,28.85,0,0,0,9.91,1.51,56.1,56.1,0,0,0,10.31-.84,70,70,0,0,0,7.68-1.87q3.26-1,5.38-1.87a10,10,0,0,1,3.47-.84,2.59,2.59,0,0,1,1.33.31,2.39,2.39,0,0,1,.89,1.11,7.66,7.66,0,0,1,.49,2.27c.09,1,.13,2.21.13,3.69q0,1.95-.09,3.33a20.5,20.5,0,0,1-.27,2.35,5.62,5.62,0,0,1-.53,1.65,6.75,6.75,0,0,1-.93,1.29,11.05,11.05,0,0,1-3.16,1.68,48.65,48.65,0,0,1-6.57,2.09,89.46,89.46,0,0,1-9.16,1.78,76.51,76.51,0,0,1-11,.76,58.3,58.3,0,0,1-18.53-2.67,32.92,32.92,0,0,1-13.28-8.09,33.57,33.57,0,0,1-8-13.68,64.54,64.54,0,0,1-2.62-19.38,61.46,61.46,0,0,1,2.76-19.06,39.8,39.8,0,0,1,8-14.4,34.38,34.38,0,0,1,12.75-9,43.92,43.92,0,0,1,16.93-3.11,44.46,44.46,0,0,1,17,2.93,30.69,30.69,0,0,1,11.59,8.14,32.66,32.66,0,0,1,6.67,12.3,53.77,53.77,0,0,1,2.13,15.47Zm-21.68-6.4q.27-9.4-3.78-14.79t-12.49-5.38a16.2,16.2,0,0,0-7.42,1.6,15.2,15.2,0,0,0-5.24,4.31,19.72,19.72,0,0,0-3.2,6.4,32,32,0,0,0-1.29,7.86Z" transform="translate(-112.92 -149.24)"/><path class="cls-2" d="M2570.75,794.42a26.62,26.62,0,0,1-2.54,11.91,23.68,23.68,0,0,1-7.15,8.62,32.2,32.2,0,0,1-10.93,5.2,51.37,51.37,0,0,1-13.69,1.74,52.51,52.51,0,0,1-8.48-.67,50.81,50.81,0,0,1-7.25-1.69,37.83,37.83,0,0,1-5.33-2.09,13.17,13.17,0,0,1-3.11-2,6.16,6.16,0,0,1-1.51-2.93,24.2,24.2,0,0,1-.54-5.91,37.44,37.44,0,0,1,.18-4.13,10.39,10.39,0,0,1,.54-2.49,2.29,2.29,0,0,1,.88-1.24,2.61,2.61,0,0,1,1.34-.32,6.59,6.59,0,0,1,2.89,1.12q1.9,1.11,4.75,2.44a50.34,50.34,0,0,0,6.62,2.49,29.36,29.36,0,0,0,8.58,1.15,20.85,20.85,0,0,0,5.37-.62,13.4,13.4,0,0,0,4.09-1.78,7.44,7.44,0,0,0,2.62-2.93,8.92,8.92,0,0,0,.89-4.09,6.83,6.83,0,0,0-1.64-4.58,14.73,14.73,0,0,0-4.36-3.33,50.93,50.93,0,0,0-6.13-2.66q-3.42-1.25-7-2.76a63.44,63.44,0,0,1-7-3.46,27,27,0,0,1-6.13-4.8,21.88,21.88,0,0,1-4.36-6.85,25.27,25.27,0,0,1-1.64-9.59,24.42,24.42,0,0,1,2.22-10.45,22.62,22.62,0,0,1,6.4-8.13,30.23,30.23,0,0,1,10.18-5.24,45,45,0,0,1,13.46-1.87,48.85,48.85,0,0,1,7.24.53,52.71,52.71,0,0,1,6.36,1.34,30.72,30.72,0,0,1,4.8,1.73,15.83,15.83,0,0,1,2.79,1.6,4.42,4.42,0,0,1,1.21,1.33,6,6,0,0,1,.53,1.6c.12.63.22,1.4.31,2.31s.13,2.06.13,3.43c0,1.6,0,2.9-.13,3.91a10.27,10.27,0,0,1-.45,2.4,2.09,2.09,0,0,1-.84,1.2,2.48,2.48,0,0,1-1.24.31,5.93,5.93,0,0,1-2.49-.94,45.54,45.54,0,0,0-4.22-2,51.85,51.85,0,0,0-5.87-2,28.29,28.29,0,0,0-7.6-.93,19.77,19.77,0,0,0-5.24.62,10,10,0,0,0-3.64,1.78,7.6,7.6,0,0,0-2.14,2.71,8,8,0,0,0-.71,3.33,6.64,6.64,0,0,0,1.69,4.63,15.4,15.4,0,0,0,4.44,3.28,50.49,50.49,0,0,0,6.27,2.67q3.51,1.24,7.11,2.71a66.06,66.06,0,0,1,7.11,3.42,26.52,26.52,0,0,1,6.26,4.8,22.21,22.21,0,0,1,4.45,6.8A23.87,23.87,0,0,1,2570.75,794.42Z" transform="translate(-112.92 -149.24)"/></svg>